<mxfile>
    <diagram id="2JgDDz2ZLc6MiNYxqaF5" name="stub">
        <mxGraphModel dx="1036" dy="830" grid="1" gridSize="10" guides="1" tooltips="1" connect="1" arrows="1" fold="1" page="1" pageScale="1" pageWidth="827" pageHeight="1169" math="0" shadow="0">
            <root>
                <mxCell id="a7Bza4B4EDXqpmdNfkFg-0"/>
                <mxCell id="a7Bza4B4EDXqpmdNfkFg-1" parent="a7Bza4B4EDXqpmdNfkFg-0"/>
                <mxCell id="bvpqpPGnbDLK5MSFeZEV-0" value="" style="group" vertex="1" connectable="0" parent="a7Bza4B4EDXqpmdNfkFg-1">
                    <mxGeometry x="130" y="120" width="610" height="320" as="geometry"/>
                </mxCell>
                <mxCell id="QjtEcgFH1chWpaXMQKGi-0" value="" style="whiteSpace=wrap;html=1;rounded=1;sketch=1;fillColor=#99FF99;fontSize=20;fontColor=#050505;fillStyle=zigzag;" vertex="1" parent="bvpqpPGnbDLK5MSFeZEV-0">
                    <mxGeometry y="80" width="200" height="240" as="geometry"/>
                </mxCell>
                <mxCell id="QjtEcgFH1chWpaXMQKGi-1" value="テスト対象" style="text;html=1;strokeColor=none;align=center;verticalAlign=middle;whiteSpace=wrap;rounded=1;sketch=1;fontSize=26;fontColor=#006633;labelBackgroundColor=none;labelBorderColor=none;shadow=0;glass=0;fillColor=#FFFFFF;fillStyle=solid;" vertex="1" parent="bvpqpPGnbDLK5MSFeZEV-0">
                    <mxGeometry x="25" y="260" width="150" height="30" as="geometry"/>
                </mxCell>
                <mxCell id="QjtEcgFH1chWpaXMQKGi-3" value="処理" style="rounded=1;whiteSpace=wrap;html=1;shadow=0;glass=0;labelBackgroundColor=none;sketch=1;fontSize=26;fillStyle=solid;fillColor=#FFFFFF;fontColor=#050505;" vertex="1" parent="bvpqpPGnbDLK5MSFeZEV-0">
                    <mxGeometry x="40" y="110" width="120" height="60" as="geometry"/>
                </mxCell>
                <mxCell id="QjtEcgFH1chWpaXMQKGi-4" value="" style="whiteSpace=wrap;html=1;rounded=1;sketch=1;fontSize=20;fontColor=#ffffff;fillStyle=zigzag;strokeColor=#001DBC;fillColor=#FF8000;" vertex="1" parent="bvpqpPGnbDLK5MSFeZEV-0">
                    <mxGeometry x="387.5" y="100" width="200" height="160" as="geometry"/>
                </mxCell>
                <mxCell id="QjtEcgFH1chWpaXMQKGi-2" style="rounded=0;orthogonalLoop=1;jettySize=auto;html=1;fontSize=26;fontColor=#FFFFFF;endSize=14;strokeWidth=5;startArrow=classic;startFill=1;endArrow=none;endFill=0;startSize=25;" edge="1" parent="bvpqpPGnbDLK5MSFeZEV-0" source="QjtEcgFH1chWpaXMQKGi-3" target="QjtEcgFH1chWpaXMQKGi-4">
                    <mxGeometry relative="1" as="geometry"/>
                </mxCell>
                <mxCell id="QjtEcgFH1chWpaXMQKGi-5" value="stub" style="text;html=1;strokeColor=none;align=center;verticalAlign=middle;whiteSpace=wrap;rounded=1;sketch=1;fontSize=26;fontColor=#006633;labelBackgroundColor=none;labelBorderColor=none;shadow=0;glass=0;fillColor=#FFFFFF;fillStyle=solid;" vertex="1" parent="bvpqpPGnbDLK5MSFeZEV-0">
                    <mxGeometry x="425" y="165" width="125" height="30" as="geometry"/>
                </mxCell>
                <mxCell id="QjtEcgFH1chWpaXMQKGi-6" value="これをテストしたい" style="shape=callout;whiteSpace=wrap;html=1;perimeter=calloutPerimeter;rounded=1;shadow=0;glass=0;labelBackgroundColor=#ffffff;sketch=1;fontSize=19;strokeColor=#005700;fillStyle=solid;fillColor=#FFFFFF;fontColor=#050505;position2=0.51;" vertex="1" parent="bvpqpPGnbDLK5MSFeZEV-0">
                    <mxGeometry x="10" y="20" width="180" height="80" as="geometry"/>
                </mxCell>
                <mxCell id="QjtEcgFH1chWpaXMQKGi-7" value="テスト対象に都合のいいデータを出してくれるダミー" style="shape=callout;whiteSpace=wrap;html=1;perimeter=calloutPerimeter;rounded=1;shadow=0;glass=0;labelBackgroundColor=#ffffff;sketch=1;fontSize=19;strokeColor=#005700;fillStyle=solid;fillColor=#FFFFFF;fontColor=#050505;position2=0.46;" vertex="1" parent="bvpqpPGnbDLK5MSFeZEV-0">
                    <mxGeometry x="350" width="260" height="90" as="geometry"/>
                </mxCell>
            </root>
        </mxGraphModel>
    </diagram>
    <diagram id="fa3U0teZ8UoI8W8-Q8fv" name="mock">
        <mxGraphModel dx="1219" dy="976" grid="1" gridSize="10" guides="1" tooltips="1" connect="1" arrows="1" fold="1" page="1" pageScale="1" pageWidth="827" pageHeight="1169" math="0" shadow="0">
            <root>
                <mxCell id="0"/>
                <mxCell id="1" parent="0"/>
                <mxCell id="2" value="" style="whiteSpace=wrap;html=1;rounded=1;sketch=1;fillColor=#99FF99;fontSize=20;fontColor=#050505;fillStyle=zigzag;" parent="1" vertex="1">
                    <mxGeometry x="50" y="150" width="200" height="240" as="geometry"/>
                </mxCell>
                <mxCell id="3" value="テスト対象" style="text;html=1;strokeColor=none;align=center;verticalAlign=middle;whiteSpace=wrap;rounded=1;sketch=1;fontSize=26;fontColor=#006633;labelBackgroundColor=none;labelBorderColor=none;shadow=0;glass=0;fillColor=#FFFFFF;fillStyle=solid;" parent="1" vertex="1">
                    <mxGeometry x="75" y="330" width="150" height="30" as="geometry"/>
                </mxCell>
                <mxCell id="8" style="rounded=0;orthogonalLoop=1;jettySize=auto;html=1;fontSize=26;fontColor=#FFFFFF;endSize=14;strokeWidth=5;" parent="1" source="5" target="6" edge="1">
                    <mxGeometry relative="1" as="geometry"/>
                </mxCell>
                <mxCell id="5" value="処理" style="rounded=1;whiteSpace=wrap;html=1;shadow=0;glass=0;labelBackgroundColor=none;sketch=1;fontSize=26;fillStyle=solid;fillColor=#FFFFFF;fontColor=#050505;" parent="1" vertex="1">
                    <mxGeometry x="90" y="180" width="120" height="60" as="geometry"/>
                </mxCell>
                <mxCell id="6" value="" style="whiteSpace=wrap;html=1;rounded=1;sketch=1;fillColor=#0050ef;fontSize=20;fontColor=#ffffff;fillStyle=zigzag;strokeColor=#001DBC;" parent="1" vertex="1">
                    <mxGeometry x="437.5" y="170" width="200" height="160" as="geometry"/>
                </mxCell>
                <mxCell id="7" value="mock" style="text;html=1;strokeColor=none;align=center;verticalAlign=middle;whiteSpace=wrap;rounded=1;sketch=1;fontSize=26;fontColor=#006633;labelBackgroundColor=none;labelBorderColor=none;shadow=0;glass=0;fillColor=#FFFFFF;fillStyle=solid;" parent="1" vertex="1">
                    <mxGeometry x="475" y="235" width="125" height="30" as="geometry"/>
                </mxCell>
                <mxCell id="9" value="これをテストしたい" style="shape=callout;whiteSpace=wrap;html=1;perimeter=calloutPerimeter;rounded=1;shadow=0;glass=0;labelBackgroundColor=#ffffff;sketch=1;fontSize=19;strokeColor=#005700;fillStyle=solid;fillColor=#FFFFFF;fontColor=#050505;position2=0.51;" parent="1" vertex="1">
                    <mxGeometry x="257.5" y="100" width="180" height="80" as="geometry"/>
                </mxCell>
                <mxCell id="11" value="テスト対象からの出力を受け付けるダミー" style="shape=callout;whiteSpace=wrap;html=1;perimeter=calloutPerimeter;rounded=1;shadow=0;glass=0;labelBackgroundColor=#ffffff;sketch=1;fontSize=19;strokeColor=#005700;fillStyle=solid;fillColor=#FFFFFF;fontColor=#050505;position2=0.28;" vertex="1" parent="1">
                    <mxGeometry x="510" y="70" width="260" height="90" as="geometry"/>
                </mxCell>
            </root>
        </mxGraphModel>
    </diagram>
</mxfile>